<svg viewBox="0 0 359.57 140.47" xmlns="http://www.w3.org/2000/svg"><g fill="#00263e"><path d="m46.1 24.43h23.05v92.19h-23.05z"/><path d="m23.05 116.62h23.05v23.05h-23.05-23.05v-138.29h46.1v23.05h-23.05z"/><path d="m141.79 139.67v-23.05h-26.22v-92.19h26.22v-23.05h-49.27v138.29z"/><path d="m171.59 32.92v-24.48h6c6.27 0 11.46 3.94 11.46 12.26s-5.24 12.22-11.51 12.22zm25.19-12.22c0-12.1-8-19.18-18.92-19.18h-13.72v38.32h13.67c10.92 0 19-7 19-19.14"/><path d="m201.25 13.19h7.19v26.59h-7.19z"/><path d="m204.82 8.86a4.43 4.43 0 1 0 0-8.86 4.43 4.43 0 1 0 0 8.86"/><path d="m226.6 32.43c-3.73 0-6.37-2.6-6.37-6.76s2.77-6.67 6.37-6.67 6.27 2.59 6.27 6.7-2.59 6.76-6.27 6.76m-.92 12.1a6 6 0 0 1 -6.21-5l-6.47 1.67c.76 5.08 5.62 9.62 12.92 9.62 10 0 13.94-6.64 13.94-13.94v-23.72h-6.92v3.13c-.91-1.78-3.35-3.62-7.56-3.62-7.3 0-12.38 5.94-12.38 13 0 7.46 5.3 12.92 12.38 12.92 3.84 0 6.32-1.68 7.4-3.41v2c0 5.13-2.54 7.4-7.08 7.4"/><path d="m248.67 8.86a4.43 4.43 0 1 0 0-8.86 4.43 4.43 0 1 0 0 8.86"/><path d="m245.1 13.19h7.19v26.59h-7.19z"/><path d="m261.24 31.94c0 5.13 3.25 8.21 8.43 8.21a10.76 10.76 0 0 0 4.06-.64v-5.95a10.27 10.27 0 0 1 -2.22.22c-2.05 0-3.13-.76-3.13-3.08v-11.14h5.35v-6.37h-5.35v-7.95h-6.49v3.76c0 2.38-1.3 4.22-4.1 4.22h-1.36v6.37h4.81z"/><path d="m294.35 29c0 4.7-2.81 6.16-5.83 6.16-2.33 0-3.46-1.51-3.46-3.08 0-2.05 1.46-3.08 3.29-3.35l6-.92zm-2-5.51-6.54 1c-4.43.65-7.94 3.3-7.94 8.05 0 4.16 3.46 8 9.13 8a8.9 8.9 0 0 0 7.84-3.94 18.36 18.36 0 0 0 .27 3.19h6.59a30.19 30.19 0 0 1 -.32-4.22v-13.09c0-5.35-3.14-10.1-11.57-10.1-7.13 0-11 4.59-11.4 8.75l6.38 1.35a4.71 4.71 0 0 1 5.08-4.32c3 0 4.48 1.56 4.48 3.46 0 .92-.48 1.67-2 1.89"/><path d="m306.64 1.46h7.19v38.32h-7.19z"/><path d="m181.48 88.86c10.76 0 16.27-7.13 17.73-13l-7-2.11a10.65 10.65 0 0 1 -10.76 7.84c-6.16 0-11.89-4.49-11.89-12.65 0-8.7 6.06-12.81 11.79-12.81 6.64 0 9.61 4 10.54 7.73l7-2.22c-1.51-6.21-7-12.7-17.56-12.7-10.27 0-19.51 7.79-19.51 20s8.91 19.94 19.61 19.94"/><path d="m213.45 83.46a3.12 3.12 0 0 1 -3.45-3.08c0-2.06 1.46-3.08 3.29-3.35l6-.92v1.19c0 4.7-2.81 6.16-5.83 6.16m6.32 1.4a18.18 18.18 0 0 0 .27 3.19h6.59a30.16 30.16 0 0 1 -.32-4.21v-13.08c0-5.35-3.14-10.11-11.57-10.11-7.13 0-11 4.59-11.4 8.76l6.38 1.35a4.71 4.71 0 0 1 5.08-4.33c3 0 4.48 1.57 4.48 3.46 0 .92-.48 1.68-2 1.89l-6.54 1c-4.43.65-7.94 3.29-7.94 8 0 4.16 3.46 8 9.13 8a8.88 8.88 0 0 0 7.84-4"/><path d="m248.44 72.27v15.78h7.13v-15.56c0-2.87 1.84-5.25 4.92-5.25 3.3 0 4.7 2.17 4.7 5v15.81h7v-17.24c0-7.13-4.7-10.1-9.62-10.1a9.23 9.23 0 0 0 -8.43 4.43c-1.35-2.87-4.27-4.43-7.89-4.43-2.92 0-6.32 1.4-7.78 4v-3.25h-6.86v26.59h7.18v-15.56c0-2.92 1.84-5.25 5-5.25s4.7 2.17 4.7 5"/><path d="m291.15 67.3c3.68 0 6.59 2.75 6.59 7.46s-2.91 7.51-6.59 7.51-6.65-2.81-6.65-7.51 3-7.46 6.65-7.46m-6.54 18.16c1.3 1.78 4 3.24 7.68 3.24 7.51 0 12.53-5.94 12.53-14 0-7.89-4.48-13.83-12.26-13.83-4 0-7 1.78-8.16 3.83v-3.24h-7v36.86h7.18z"/><path d="m333.63 61.46h-7.19v15.46c0 3.08-1.83 5.24-5 5.24-3.35 0-4.87-2.38-4.87-5.35v-15.35h-7.18v16.81c0 5.78 3.67 10.48 10.1 10.48 2.81 0 5.89-1.08 7.35-3.56a17.83 17.83 0 0 0 .22 2.86h6.86a43.35 43.35 0 0 1 -.27-4.81z"/><path d="m351.68 72-3.78-.81c-1.46-.28-2.43-1.08-2.43-2.38 0-1.52 1.51-2.65 3.4-2.65a4.05 4.05 0 0 1 4.38 3.57l6-1.36c-.33-2.86-2.86-7.67-10.43-7.67-5.73 0-9.94 3.95-9.94 8.7 0 3.73 2.32 6.81 7.45 8l3.52.81c2 .43 2.86 1.4 2.86 2.59 0 1.41-1.13 2.65-3.51 2.65-3.14 0-4.7-1.95-4.87-4l-6.16 1.35c.33 3 3.08 8.21 11.08 8.21 7 0 10.32-4.43 10.32-8.75 0-3.89-2.64-7.08-7.89-8.16"/></g><g fill="#00a3b0"><path d="m164.3 139.67v-37.93h7.38v30.87h16.91v7.06z"/><path d="m196.51 100.3a4.39 4.39 0 1 1 -4.39 4.44 4.38 4.38 0 0 1 4.39-4.44zm-3.51 39.37v-26.32h7.11v26.32z"/><path d="m221.54 139.67h-7.11l-10.75-26.32h7.81l6.51 17.65 6.26-17.66h7.49z"/><path d="m258.14 132.13c-1.34 4.55-5.51 8.34-12 8.34-7.22 0-13.58-5.18-13.58-14.07 0-8.39 6.2-13.85 12.94-13.85 8.13 0 13 5.19 13 13.64 0 1-.1 2.09-.1 2.19h-18.83a6.42 6.42 0 0 0 6.64 6 5.82 5.82 0 0 0 6-4zm-6.64-8.61c-.1-2.63-1.81-5.19-5.88-5.19a5.71 5.71 0 0 0 -5.89 5.19z"/></g></svg>